<svg width="219" height="70" viewBox="0 0 219 70" fill="none" xmlns="http://www.w3.org/2000/svg">
<circle cx="35" cy="35" r="33.8136" fill="#112031" stroke="black" stroke-width="2.37288"/>
<mask id="mask0_64_2839" style="mask-type:alpha" maskUnits="userSpaceOnUse" x="2" y="2" width="66" height="66">
<circle cx="34.9999" cy="35" r="32.6271" fill="white"/>
</mask>
<g mask="url(#mask0_64_2839)">
<line x1="40.0423" y1="0.59317" x2="40.0423" y2="69.4067" stroke="#F38E8E" stroke-width="0.59322"/>
<rect x="37.5597" y="22.5505" width="4.79452" height="27.6297" fill="#F38E8E"/>
<line x1="60.805" y1="12.4576" x2="60.805" y2="57.5424" stroke="#F38E8E" stroke-width="0.59322"/>
<rect x="58.3225" y="20.1776" width="4.79452" height="9.56343" fill="#F38E8E"/>
<line x1="9.19493" y1="12.4576" x2="9.19492" y2="57.5424" stroke="#F38E8E" stroke-width="0.59322"/>
<rect x="6.71228" y="30.8556" width="4.79452" height="9.56343" fill="#F38E8E"/>
<line x1="19.8729" y1="3.5593" x2="19.8729" y2="65.8474" stroke="#6FE0BB" stroke-width="0.59322"/>
<rect x="17.3903" y="12.4658" width="4.79452" height="25.0096" fill="#6FE0BB"/>
<line x1="50.1272" y1="3.5593" x2="50.1272" y2="65.8474" stroke="#6FE0BB" stroke-width="0.59322"/>
<rect x="47.6445" y="16.0251" width="4.79452" height="40.9322" fill="#6FE0BB"/>
<line x1="29.9576" y1="1.18646" x2="29.9576" y2="68.8136" stroke="#6FE0BB" stroke-width="0.59322"/>
<rect x="27.475" y="26.73" width="4.79452" height="17.9314" fill="#6FE0BB"/>
</g>
<path d="M83.627 29V13.3893H90.2451C90.9633 13.3893 91.6229 13.5359 92.2239 13.829C92.8249 14.1222 93.3452 14.518 93.785 15.0163C94.2394 15.5147 94.5912 16.0717 94.8403 16.6873C95.0895 17.303 95.2141 17.9333 95.2141 18.5782C95.2141 19.4577 95.0089 20.2932 94.5985 21.0847C94.1881 21.8762 93.6237 22.5212 92.9055 23.0196C92.1873 23.5179 91.3371 23.7671 90.355 23.7671H86.6612V29H83.627ZM86.6612 21.1067H90.1791C90.5456 21.1067 90.8754 21.0041 91.1685 20.7989C91.4617 20.5937 91.6962 20.3005 91.8721 19.9194C92.048 19.5236 92.136 19.0766 92.136 18.5782C92.136 18.0359 92.0334 17.5741 91.8281 17.193C91.6376 16.8119 91.3811 16.5261 91.0586 16.3356C90.7508 16.145 90.4137 16.0497 90.0472 16.0497H86.6612V21.1067ZM102.125 29.2199C101.187 29.2199 100.344 29.066 99.5962 28.7581C98.8487 28.4357 98.211 27.9959 97.6834 27.4389C97.1703 26.8819 96.7746 26.2443 96.4961 25.5261C96.2176 24.8078 96.0783 24.0529 96.0783 23.2614C96.0783 22.4552 96.2176 21.693 96.4961 20.9748C96.7746 20.2565 97.1703 19.6189 97.6834 19.0619C98.211 18.5049 98.8487 18.0725 99.5962 17.7647C100.344 17.4422 101.187 17.281 102.125 17.281C103.063 17.281 103.898 17.4422 104.631 17.7647C105.379 18.0725 106.016 18.5049 106.544 19.0619C107.072 19.6189 107.468 20.2565 107.731 20.9748C108.01 21.693 108.149 22.4552 108.149 23.2614C108.149 24.0529 108.01 24.8078 107.731 25.5261C107.468 26.2443 107.072 26.8819 106.544 27.4389C106.031 27.9959 105.401 28.4357 104.653 28.7581C103.906 29.066 103.063 29.2199 102.125 29.2199ZM99.1125 23.2614C99.1125 23.9357 99.2444 24.5367 99.5083 25.0643C99.7721 25.5774 100.131 25.9805 100.586 26.2736C101.04 26.5668 101.553 26.7134 102.125 26.7134C102.682 26.7134 103.187 26.5668 103.642 26.2736C104.096 25.9658 104.455 25.5554 104.719 25.0424C104.998 24.5147 105.137 23.9137 105.137 23.2394C105.137 22.5798 104.998 21.9862 104.719 21.4585C104.455 20.9308 104.096 20.5204 103.642 20.2272C103.187 19.9341 102.682 19.7875 102.125 19.7875C101.553 19.7875 101.04 19.9414 100.586 20.2492C100.131 20.5424 99.7721 20.9528 99.5083 21.4805C99.2444 21.9935 99.1125 22.5872 99.1125 23.2614ZM116.998 20.0293C116.104 20.0293 115.305 20.2052 114.601 20.557C113.897 20.8942 113.392 21.3852 113.084 22.0302V29H110.138V17.4789H112.842V19.9414C113.253 19.1499 113.773 18.5269 114.403 18.0725C115.033 17.6181 115.7 17.3689 116.404 17.325C116.565 17.325 116.69 17.325 116.778 17.325C116.866 17.325 116.939 17.3323 116.998 17.3469V20.0293ZM125.544 28.4064C125.295 28.509 124.995 28.6262 124.643 28.7581C124.291 28.8901 123.91 28.9927 123.5 29.066C123.104 29.1539 122.701 29.1979 122.29 29.1979C121.748 29.1979 121.25 29.1026 120.795 28.9121C120.341 28.7215 119.974 28.421 119.696 28.0106C119.432 27.5855 119.3 27.0358 119.3 26.3616V19.7435H117.783V17.4789H119.3V13.7411H122.246V17.4789H124.665V19.7435H122.246V25.3722C122.261 25.7679 122.371 26.0538 122.576 26.2297C122.781 26.4055 123.038 26.4935 123.346 26.4935C123.653 26.4935 123.954 26.4422 124.247 26.3396C124.54 26.237 124.775 26.149 124.951 26.0757L125.544 28.4064ZM127.739 29V20.3372H126.222V18.0945H127.739V17.3909C127.739 16.4382 127.893 15.6173 128.201 14.9284C128.524 14.2248 128.971 13.6825 129.542 13.3014C130.129 12.9203 130.81 12.7297 131.587 12.7297C132.056 12.7297 132.525 12.7883 132.994 12.9056C133.478 13.0229 133.954 13.1914 134.423 13.4113L133.83 15.632C133.61 15.5147 133.353 15.4194 133.06 15.3461C132.767 15.2582 132.489 15.2142 132.225 15.2142C131.726 15.2142 131.345 15.3901 131.081 15.7419C130.818 16.0937 130.686 16.6067 130.686 17.281V18.0945H133.5V20.3372H130.686V29H127.739ZM140.344 29.2199C139.406 29.2199 138.563 29.066 137.816 28.7581C137.068 28.4357 136.43 27.9959 135.903 27.4389C135.39 26.8819 134.994 26.2443 134.715 25.5261C134.437 24.8078 134.298 24.0529 134.298 23.2614C134.298 22.4552 134.437 21.693 134.715 20.9748C134.994 20.2565 135.39 19.6189 135.903 19.0619C136.43 18.5049 137.068 18.0725 137.816 17.7647C138.563 17.4422 139.406 17.281 140.344 17.281C141.282 17.281 142.118 17.4422 142.851 17.7647C143.598 18.0725 144.236 18.5049 144.763 19.0619C145.291 19.6189 145.687 20.2565 145.951 20.9748C146.229 21.693 146.369 22.4552 146.369 23.2614C146.369 24.0529 146.229 24.8078 145.951 25.5261C145.687 26.2443 145.291 26.8819 144.763 27.4389C144.25 27.9959 143.62 28.4357 142.873 28.7581C142.125 29.066 141.282 29.2199 140.344 29.2199ZM137.332 23.2614C137.332 23.9357 137.464 24.5367 137.728 25.0643C137.992 25.5774 138.351 25.9805 138.805 26.2736C139.259 26.5668 139.772 26.7134 140.344 26.7134C140.901 26.7134 141.407 26.5668 141.861 26.2736C142.316 25.9658 142.675 25.5554 142.939 25.0424C143.217 24.5147 143.356 23.9137 143.356 23.2394C143.356 22.5798 143.217 21.9862 142.939 21.4585C142.675 20.9308 142.316 20.5204 141.861 20.2272C141.407 19.9341 140.901 19.7875 140.344 19.7875C139.772 19.7875 139.259 19.9414 138.805 20.2492C138.351 20.5424 137.992 20.9528 137.728 21.4805C137.464 21.9935 137.332 22.5872 137.332 23.2614ZM148.335 12.9496H151.281V25.3062C151.281 25.8339 151.369 26.193 151.545 26.3836C151.721 26.5595 151.963 26.6474 152.271 26.6474C152.505 26.6474 152.747 26.6181 152.996 26.5595C153.246 26.5008 153.465 26.4275 153.656 26.3396L154.052 28.5822C153.656 28.7728 153.194 28.9194 152.667 29.022C152.139 29.1246 151.662 29.1759 151.237 29.1759C150.314 29.1759 149.596 28.934 149.083 28.4503C148.584 27.952 148.335 27.2484 148.335 26.3396V12.9496ZM155.335 29V17.4789H158.282V29H155.335ZM155.335 15.8738V12.9496H158.282V15.8738H155.335ZM166.26 29.2199C165.322 29.2199 164.479 29.066 163.732 28.7581C162.984 28.4357 162.347 27.9959 161.819 27.4389C161.306 26.8819 160.91 26.2443 160.632 25.5261C160.353 24.8078 160.214 24.0529 160.214 23.2614C160.214 22.4552 160.353 21.693 160.632 20.9748C160.91 20.2565 161.306 19.6189 161.819 19.0619C162.347 18.5049 162.984 18.0725 163.732 17.7647C164.479 17.4422 165.322 17.281 166.26 17.281C167.198 17.281 168.034 17.4422 168.767 17.7647C169.514 18.0725 170.152 18.5049 170.68 19.0619C171.207 19.6189 171.603 20.2565 171.867 20.9748C172.145 21.693 172.285 22.4552 172.285 23.2614C172.285 24.0529 172.145 24.8078 171.867 25.5261C171.603 26.2443 171.207 26.8819 170.68 27.4389C170.167 27.9959 169.536 28.4357 168.789 28.7581C168.041 29.066 167.198 29.2199 166.26 29.2199ZM163.248 23.2614C163.248 23.9357 163.38 24.5367 163.644 25.0643C163.908 25.5774 164.267 25.9805 164.721 26.2736C165.176 26.5668 165.689 26.7134 166.26 26.7134C166.817 26.7134 167.323 26.5668 167.777 26.2736C168.232 25.9658 168.591 25.5554 168.855 25.0424C169.133 24.5147 169.272 23.9137 169.272 23.2394C169.272 22.5798 169.133 21.9862 168.855 21.4585C168.591 20.9308 168.232 20.5204 167.777 20.2272C167.323 19.9341 166.817 19.7875 166.26 19.7875C165.689 19.7875 165.176 19.9414 164.721 20.2492C164.267 20.5424 163.908 20.9528 163.644 21.4805C163.38 21.9935 163.248 22.5872 163.248 23.2614ZM83.627 56V40.3893H86.6612V53.3396H94.6205V56H83.627ZM101.438 56.2199C100.515 56.2199 99.6792 56.066 98.9316 55.7581C98.1841 55.4357 97.5464 55.0033 97.0188 54.4609C96.4911 53.9039 96.0807 53.2736 95.7875 52.57C95.509 51.8518 95.3697 51.0969 95.3697 50.3054C95.3697 49.2061 95.6116 48.202 96.0953 47.2932C96.5937 46.3844 97.2973 45.6588 98.2061 45.1165C99.1295 44.5595 100.214 44.281 101.46 44.281C102.721 44.281 103.798 44.5595 104.692 45.1165C105.586 45.6588 106.268 46.3844 106.737 47.2932C107.221 48.1873 107.463 49.1547 107.463 50.1955C107.463 50.3714 107.455 50.5546 107.441 50.7451C107.426 50.921 107.411 51.0676 107.397 51.1849H98.4919C98.5505 51.7712 98.7191 52.2842 98.9976 52.724C99.2907 53.1637 99.6572 53.5008 100.097 53.7354C100.551 53.9552 101.035 54.0652 101.548 54.0652C102.134 54.0652 102.684 53.9259 103.197 53.6474C103.725 53.3542 104.084 52.9731 104.274 52.5041L106.803 53.2077C106.524 53.794 106.121 54.3143 105.594 54.7687C105.081 55.2231 104.472 55.5822 103.769 55.8461C103.065 56.0953 102.288 56.2199 101.438 56.2199ZM98.4259 49.316H104.45C104.392 48.7297 104.223 48.224 103.945 47.7989C103.681 47.3592 103.329 47.022 102.889 46.7875C102.45 46.5383 101.958 46.4137 101.416 46.4137C100.888 46.4137 100.405 46.5383 99.965 46.7875C99.5399 47.022 99.1881 47.3592 98.9096 47.7989C98.6458 48.224 98.4846 48.7297 98.4259 49.316ZM108.466 52.592C108.466 51.8445 108.671 51.1922 109.081 50.6352C109.507 50.0635 110.093 49.6238 110.84 49.316C111.588 49.0082 112.445 48.8543 113.413 48.8543C113.897 48.8543 114.388 48.8909 114.886 48.9642C115.384 49.0375 115.817 49.1547 116.183 49.316V48.7004C116.183 47.9675 115.963 47.4031 115.524 47.0074C115.099 46.6116 114.461 46.4137 113.611 46.4137C112.981 46.4137 112.38 46.5236 111.808 46.7435C111.236 46.9634 110.635 47.2859 110.005 47.7109L109.06 45.7761C109.822 45.2777 110.599 44.9039 111.39 44.6548C112.196 44.4056 113.039 44.281 113.919 44.281C115.56 44.281 116.836 44.6914 117.744 45.5123C118.668 46.3331 119.13 47.5057 119.13 49.0302V52.702C119.13 53.0098 119.181 53.2297 119.283 53.3616C119.401 53.4935 119.584 53.5741 119.833 53.6034V56C119.569 56.044 119.327 56.0806 119.108 56.1099C118.902 56.1393 118.726 56.1539 118.58 56.1539C117.994 56.1539 117.546 56.022 117.239 55.7581C116.945 55.4943 116.762 55.1718 116.689 54.7907L116.623 54.1971C116.125 54.842 115.502 55.3404 114.754 55.6922C114.007 56.044 113.244 56.2199 112.467 56.2199C111.705 56.2199 111.016 56.066 110.401 55.7581C109.8 55.4357 109.323 55.0033 108.972 54.4609C108.634 53.9039 108.466 53.281 108.466 52.592ZM115.634 53.1857C115.795 53.0098 115.927 52.8339 116.029 52.658C116.132 52.4821 116.183 52.3209 116.183 52.1743V51.009C115.831 50.8624 115.45 50.7525 115.04 50.6792C114.63 50.5912 114.241 50.5473 113.875 50.5473C113.112 50.5473 112.482 50.7158 111.984 51.0529C111.5 51.3754 111.258 51.8078 111.258 52.3502C111.258 52.6433 111.339 52.9218 111.5 53.1857C111.661 53.4495 111.896 53.6621 112.204 53.8233C112.511 53.9845 112.878 54.0652 113.303 54.0652C113.743 54.0652 114.175 53.9845 114.6 53.8233C115.025 53.6474 115.37 53.4349 115.634 53.1857ZM121.179 50.2394C121.179 49.1254 121.399 48.1214 121.839 47.2272C122.278 46.3184 122.887 45.6002 123.664 45.0725C124.44 44.5448 125.327 44.281 126.324 44.281C127.174 44.281 127.936 44.4935 128.611 44.9186C129.3 45.329 129.835 45.8567 130.216 46.5017V39.9496H133.162V52.702C133.162 53.0098 133.213 53.2297 133.316 53.3616C133.418 53.4935 133.594 53.5741 133.844 53.6034V56C133.331 56.1026 132.913 56.1539 132.59 56.1539C132.063 56.1539 131.623 56.022 131.271 55.7581C130.934 55.4943 130.743 55.1498 130.699 54.7248L130.655 53.9992C130.23 54.7174 129.651 55.2671 128.918 55.6482C128.2 56.0293 127.445 56.2199 126.654 56.2199C125.862 56.2199 125.129 56.066 124.455 55.7581C123.796 55.4503 123.217 55.0252 122.718 54.4829C122.234 53.9406 121.853 53.3103 121.575 52.592C121.311 51.8591 121.179 51.0749 121.179 50.2394ZM130.216 51.7785V49.0302C130.069 48.6051 129.835 48.224 129.512 47.8868C129.19 47.5497 128.831 47.2859 128.435 47.0953C128.039 46.8901 127.643 46.7875 127.247 46.7875C126.793 46.7875 126.383 46.8828 126.016 47.0733C125.65 47.2639 125.327 47.5204 125.049 47.8429C124.785 48.1653 124.58 48.5391 124.433 48.9642C124.301 49.3893 124.235 49.8363 124.235 50.3054C124.235 50.7744 124.309 51.2215 124.455 51.6466C124.616 52.057 124.844 52.4161 125.137 52.724C125.43 53.0318 125.767 53.2736 126.148 53.4495C126.544 53.6254 126.969 53.7134 127.423 53.7134C127.702 53.7134 127.98 53.6694 128.259 53.5814C128.552 53.4788 128.823 53.3469 129.072 53.1857C129.336 53.0098 129.563 52.8046 129.754 52.57C129.959 52.3209 130.113 52.057 130.216 51.7785ZM141.397 56.2199C140.473 56.2199 139.638 56.066 138.89 55.7581C138.143 55.4357 137.505 55.0033 136.977 54.4609C136.45 53.9039 136.039 53.2736 135.746 52.57C135.468 51.8518 135.328 51.0969 135.328 50.3054C135.328 49.2061 135.57 48.202 136.054 47.2932C136.552 46.3844 137.256 45.6588 138.165 45.1165C139.088 44.5595 140.173 44.281 141.419 44.281C142.679 44.281 143.757 44.5595 144.651 45.1165C145.545 45.6588 146.227 46.3844 146.696 47.2932C147.179 48.1873 147.421 49.1547 147.421 50.1955C147.421 50.3714 147.414 50.5546 147.399 50.7451C147.384 50.921 147.37 51.0676 147.355 51.1849H138.45C138.509 51.7712 138.678 52.2842 138.956 52.724C139.249 53.1637 139.616 53.5008 140.056 53.7354C140.51 53.9552 140.994 54.0652 141.507 54.0652C142.093 54.0652 142.643 53.9259 143.156 53.6474C143.683 53.3542 144.042 52.9731 144.233 52.5041L146.762 53.2077C146.483 53.794 146.08 54.3143 145.552 54.7687C145.039 55.2231 144.431 55.5822 143.727 55.8461C143.024 56.0953 142.247 56.2199 141.397 56.2199ZM138.385 49.316H144.409C144.35 48.7297 144.182 48.224 143.903 47.7989C143.639 47.3592 143.288 47.022 142.848 46.7875C142.408 46.5383 141.917 46.4137 141.375 46.4137C140.847 46.4137 140.363 46.5383 139.924 46.7875C139.499 47.022 139.147 47.3592 138.868 47.7989C138.604 48.224 138.443 48.7297 138.385 49.316ZM156.076 47.0293C155.182 47.0293 154.383 47.2052 153.679 47.557C152.976 47.8942 152.47 48.3852 152.162 49.0302V56H149.216V44.4789H151.92V46.9414C152.331 46.1499 152.851 45.5269 153.481 45.0725C154.112 44.6181 154.779 44.3689 155.482 44.325C155.643 44.325 155.768 44.325 155.856 44.325C155.944 44.325 156.017 44.3323 156.076 44.3469V47.0293ZM164.271 56.2199C163.391 56.2199 162.607 56.022 161.918 55.6262C161.229 55.2305 160.687 54.6881 160.291 53.9992V56H157.719V39.9496H160.665V46.5017C161.075 45.8127 161.61 45.2704 162.27 44.8746C162.944 44.4789 163.728 44.281 164.623 44.281C165.37 44.281 166.052 44.4422 166.667 44.7647C167.283 45.0725 167.811 45.5049 168.25 46.0619C168.705 46.6189 169.049 47.2565 169.284 47.9748C169.533 48.693 169.658 49.4626 169.658 50.2834C169.658 51.1043 169.518 51.8738 169.24 52.592C168.976 53.3103 168.602 53.9479 168.119 54.5049C167.635 55.0472 167.063 55.4723 166.404 55.7801C165.759 56.0733 165.048 56.2199 164.271 56.2199ZM163.457 53.7134C163.926 53.7134 164.351 53.6254 164.733 53.4495C165.128 53.259 165.465 53.0098 165.744 52.702C166.037 52.3941 166.257 52.035 166.404 51.6246C166.565 51.1995 166.645 50.7598 166.645 50.3054C166.645 49.6751 166.513 49.0961 166.25 48.5684C166 48.0261 165.649 47.5937 165.194 47.2712C164.755 46.9487 164.234 46.7875 163.633 46.7875C163.208 46.7875 162.798 46.8901 162.402 47.0953C162.021 47.2859 161.676 47.5497 161.369 47.8868C161.075 48.224 160.841 48.6051 160.665 49.0302V51.7785C160.753 52.0717 160.892 52.3355 161.083 52.57C161.288 52.8046 161.522 53.0098 161.786 53.1857C162.05 53.3469 162.321 53.4788 162.6 53.5814C162.893 53.6694 163.179 53.7134 163.457 53.7134ZM176.975 56.2199C176.036 56.2199 175.194 56.066 174.446 55.7581C173.699 55.4357 173.061 54.9959 172.533 54.4389C172.02 53.8819 171.624 53.2443 171.346 52.5261C171.067 51.8078 170.928 51.0529 170.928 50.2614C170.928 49.4552 171.067 48.693 171.346 47.9748C171.624 47.2565 172.02 46.6189 172.533 46.0619C173.061 45.5049 173.699 45.0725 174.446 44.7647C175.194 44.4422 176.036 44.281 176.975 44.281C177.913 44.281 178.748 44.4422 179.481 44.7647C180.229 45.0725 180.866 45.5049 181.394 46.0619C181.922 46.6189 182.317 47.2565 182.581 47.9748C182.86 48.693 182.999 49.4552 182.999 50.2614C182.999 51.0529 182.86 51.8078 182.581 52.5261C182.317 53.2443 181.922 53.8819 181.394 54.4389C180.881 54.9959 180.251 55.4357 179.503 55.7581C178.756 56.066 177.913 56.2199 176.975 56.2199ZM173.962 50.2614C173.962 50.9357 174.094 51.5367 174.358 52.0643C174.622 52.5774 174.981 52.9805 175.436 53.2736C175.89 53.5668 176.403 53.7134 176.975 53.7134C177.532 53.7134 178.037 53.5668 178.492 53.2736C178.946 52.9658 179.305 52.5554 179.569 52.0424C179.848 51.5147 179.987 50.9137 179.987 50.2394C179.987 49.5798 179.848 48.9862 179.569 48.4585C179.305 47.9308 178.946 47.5204 178.492 47.2272C178.037 46.9341 177.532 46.7875 176.975 46.7875C176.403 46.7875 175.89 46.9414 175.436 47.2492C174.981 47.5424 174.622 47.9528 174.358 48.4805C174.094 48.9935 173.962 49.5872 173.962 50.2614ZM184.196 52.592C184.196 51.8445 184.401 51.1922 184.812 50.6352C185.237 50.0635 185.823 49.6238 186.571 49.316C187.318 49.0082 188.176 48.8543 189.143 48.8543C189.627 48.8543 190.118 48.8909 190.616 48.9642C191.115 49.0375 191.547 49.1547 191.913 49.316V48.7004C191.913 47.9675 191.694 47.4031 191.254 47.0074C190.829 46.6116 190.191 46.4137 189.341 46.4137C188.711 46.4137 188.11 46.5236 187.538 46.7435C186.966 46.9634 186.365 47.2859 185.735 47.7109L184.79 45.7761C185.552 45.2777 186.329 44.9039 187.12 44.6548C187.927 44.4056 188.769 44.281 189.649 44.281C191.291 44.281 192.566 44.6914 193.475 45.5123C194.398 46.3331 194.86 47.5057 194.86 49.0302V52.702C194.86 53.0098 194.911 53.2297 195.014 53.3616C195.131 53.4935 195.314 53.5741 195.563 53.6034V56C195.299 56.044 195.058 56.0806 194.838 56.1099C194.633 56.1393 194.457 56.1539 194.31 56.1539C193.724 56.1539 193.277 56.022 192.969 55.7581C192.676 55.4943 192.492 55.1718 192.419 54.7907L192.353 54.1971C191.855 54.842 191.232 55.3404 190.484 55.6922C189.737 56.044 188.975 56.2199 188.198 56.2199C187.435 56.2199 186.747 56.066 186.131 55.7581C185.53 55.4357 185.054 55.0033 184.702 54.4609C184.365 53.9039 184.196 53.281 184.196 52.592ZM191.364 53.1857C191.525 53.0098 191.657 52.8339 191.76 52.658C191.862 52.4821 191.913 52.3209 191.913 52.1743V51.009C191.562 50.8624 191.181 50.7525 190.77 50.6792C190.36 50.5912 189.971 50.5473 189.605 50.5473C188.843 50.5473 188.212 50.7158 187.714 51.0529C187.23 51.3754 186.988 51.8078 186.988 52.3502C186.988 52.6433 187.069 52.9218 187.23 53.1857C187.392 53.4495 187.626 53.6621 187.934 53.8233C188.242 53.9845 188.608 54.0652 189.033 54.0652C189.473 54.0652 189.905 53.9845 190.33 53.8233C190.756 53.6474 191.1 53.4349 191.364 53.1857ZM204.473 47.0293C203.579 47.0293 202.78 47.2052 202.076 47.557C201.373 47.8942 200.867 48.3852 200.559 49.0302V56H197.613V44.4789H200.317V46.9414C200.728 46.1499 201.248 45.5269 201.878 45.0725C202.509 44.6181 203.176 44.3689 203.879 44.325C204.04 44.325 204.165 44.325 204.253 44.325C204.341 44.325 204.414 44.3323 204.473 44.3469V47.0293ZM205.305 50.2394C205.305 49.1254 205.525 48.1214 205.964 47.2272C206.404 46.3184 207.012 45.6002 207.789 45.0725C208.566 44.5448 209.453 44.281 210.45 44.281C211.3 44.281 212.062 44.4935 212.736 44.9186C213.425 45.329 213.96 45.8567 214.341 46.5017V39.9496H217.288V52.702C217.288 53.0098 217.339 53.2297 217.441 53.3616C217.544 53.4935 217.72 53.5741 217.969 53.6034V56C217.456 56.1026 217.038 56.1539 216.716 56.1539C216.188 56.1539 215.748 56.022 215.397 55.7581C215.06 55.4943 214.869 55.1498 214.825 54.7248L214.781 53.9992C214.356 54.7174 213.777 55.2671 213.044 55.6482C212.326 56.0293 211.571 56.2199 210.779 56.2199C209.988 56.2199 209.255 56.066 208.581 55.7581C207.921 55.4503 207.342 55.0252 206.844 54.4829C206.36 53.9406 205.979 53.3103 205.7 52.592C205.437 51.8591 205.305 51.0749 205.305 50.2394ZM214.341 51.7785V49.0302C214.195 48.6051 213.96 48.224 213.638 47.8868C213.315 47.5497 212.956 47.2859 212.56 47.0953C212.165 46.8901 211.769 46.7875 211.373 46.7875C210.919 46.7875 210.508 46.8828 210.142 47.0733C209.775 47.2639 209.453 47.5204 209.174 47.8429C208.911 48.1653 208.705 48.5391 208.559 48.9642C208.427 49.3893 208.361 49.8363 208.361 50.3054C208.361 50.7744 208.434 51.2215 208.581 51.6466C208.742 52.057 208.969 52.4161 209.262 52.724C209.556 53.0318 209.893 53.2736 210.274 53.4495C210.67 53.6254 211.095 53.7134 211.549 53.7134C211.827 53.7134 212.106 53.6694 212.384 53.5814C212.678 53.4788 212.949 53.3469 213.198 53.1857C213.462 53.0098 213.689 52.8046 213.88 52.57C214.085 52.3209 214.239 52.057 214.341 51.7785Z" fill="black"/>
</svg>
